<?xml version="1.0" encoding="UTF-8"?>
<svg xmlns="http://www.w3.org/2000/svg" xmlns:xlink="http://www.w3.org/1999/xlink" xmlns:xodm="http://www.corel.com/coreldraw/odm/2003" xml:space="preserve" width="53.0972mm" height="15.3339mm" version="1.1" style="shape-rendering:geometricPrecision; text-rendering:geometricPrecision; image-rendering:optimizeQuality; fill-rule:evenodd; clip-rule:evenodd" viewBox="0 0 8342.35 2409.18"> <defs> <style type="text/css"> .fil0 {fill:#080808;fill-rule:nonzero} .fil1 {fill:#44D62C;fill-rule:nonzero} </style> </defs> <g id="Warstwa_x0020_1"> <metadata id="CorelCorpID_0Corel-Layer"></metadata> <g id="_2388729875120"> <path class="fil0" d="M1797.08 1153.6l96.31 0 0 192.61 99.99 -40.76 0 81.46c-4.98,2.47 -10.37,4.84 -16.32,7.07 -5.89,2.22 -12.68,4.81 -20.33,7.76 -7.68,2.95 -16.58,6.55 -26.68,10.76 -10.15,4.21 -22.34,9.24 -36.65,15.15l0 162.99 251.81 0 0 81.48 -348.12 0 0 -203.71 -59.3 22.23 0 -81.51 59.3 -22.22 0 -233.32z"></path> <path class="fil0" d="M2463.71 1294.34l92.62 0 0 377.78 -62.94 0 -11.14 -44.45 -7.45 0c-5.89,9.88 -13.07,18.52 -21.45,25.94 -7.9,6.91 -17.02,12.91 -27.39,18.15 -10.37,5.18 -22.48,7.78 -36.31,7.78l-66.68 0c-15.82,0 -30.28,-2.59 -43.35,-7.78 -13.07,-5.23 -24.46,-12.35 -34.06,-21.48 -9.6,-9.14 -17.02,-19.77 -22.23,-31.88 -5.2,-12.1 -7.75,-25.04 -7.75,-38.9l0 -285.16 92.59 0 0 270.38c0,11.36 3.57,20.36 10.73,27.04 7.15,6.65 17.14,9.99 30.04,9.99l55.56 0c10.31,0 19.23,-2.09 26.62,-6.3 7.42,-4.16 13.61,-9 18.54,-14.47 5.44,-5.91 10.09,-12.57 14.05,-19.95l0 -266.69z"></path> <polygon class="fil0" points="2828.91,1438.78 2899.3,1294.34 2991.89,1294.34 2991.89,1331.37 2906.71,1475.84 2999.32,1635.09 2999.32,1672.12 2906.71,1672.12 2828.91,1516.55 2758.57,1516.55 2758.57,1672.12 2665.95,1672.12 2665.95,1153.6 2758.57,1153.6 2758.57,1438.78 "></polygon> <path class="fil0" d="M3245.96 1601.75c10.37,0 19.31,-2.09 26.68,-6.3 7.4,-4.16 13.57,-9 18.52,-14.47 5.42,-5.91 10.15,-12.57 14.08,-19.95l0 -44.48 -111.1 0c-11.39,0 -20.39,3.33 -27.09,10.01 -6.65,6.66 -9.99,15.68 -9.99,27.06l0 11.11c0,11.36 3.35,20.36 9.99,27.04 6.69,6.65 15.7,9.99 27.09,9.99l51.82 0zm151.85 70.37l-62.96 0 -11.09 -44.45 -7.38 0c-5.97,9.88 -13.13,18.52 -21.51,25.94 -7.92,6.91 -17.05,12.91 -27.4,18.15 -10.4,5.18 -22.51,7.78 -36.31,7.78l-59.26 0c-15.84,0 -30.24,-2.59 -43.35,-7.78 -13.09,-5.23 -24.45,-12.35 -34.09,-21.48 -9.63,-9.14 -16.98,-19.77 -22.18,-31.88 -5.22,-12.1 -7.78,-25.04 -7.78,-38.9l0 -40.71c0,-13.84 2.56,-26.79 7.78,-38.9 5.2,-12.07 12.55,-22.72 22.18,-31.86 9.65,-9.1 21.01,-16.29 34.09,-21.49 13.1,-5.15 27.51,-7.76 43.35,-7.76l133.34 0 0 -25.91c0,-27.15 -13.62,-40.74 -40.76,-40.74l-166.67 0 0 -77.79 192.62 0c15.77,0 30.23,2.58 43.3,7.76 13.1,5.2 24.45,12.38 34.09,21.49 9.58,9.14 17.03,19.75 22.26,31.86 5.14,12.08 7.71,25.08 7.71,38.9l0 277.76z"></path> <path class="fil0" d="M3716.36 1561.03c0,-19.28 -9.88,-30.39 -29.65,-33.37l-103.7 -18.49c-10.87,-1.96 -21.46,-5.81 -31.86,-11.49 -10.39,-5.67 -19.5,-12.96 -27.42,-21.84 -7.89,-8.91 -14.17,-19.01 -18.87,-30.4 -4.68,-11.38 -7.04,-23.44 -7.04,-36.31l0 -14.77c0,-13.83 2.58,-26.82 7.78,-38.9 5.18,-12.11 12.6,-22.72 22.25,-31.86 9.65,-9.11 20.96,-16.29 34.05,-21.49 13.12,-5.18 27.53,-7.76 43.3,-7.76l188.95 0 0 55.56 -22.25 22.23 -144.44 0c-11.38,0 -20.36,3.08 -27.02,9.24 -6.71,6.19 -9.99,12.99 -9.99,20.38 0,10.86 2.07,19.25 6.3,25.17 4.15,5.95 11.96,9.9 23.3,11.86l107.42 18.54c22.22,3.94 41.34,14.41 57.39,31.45 16.06,17.08 24.09,38.67 24.09,64.84l0 18.49c0,13.86 -2.58,26.8 -7.78,38.92 -5.17,12.08 -12.6,22.72 -22.23,31.83 -9.62,9.14 -20.94,16.31 -34.06,21.49 -13.1,5.22 -27.53,7.78 -43.35,7.78l-207.41 0 0 -77.79 188.88 0c22.22,0 33.36,-11.09 33.36,-33.31z"></path> <path class="fil0" d="M3992.66 1294.34l0 377.78 -92.6 0 0 -377.78 92.6 0zm0 -151.88l0 103.73 -92.6 0 0 -103.73 92.6 0z"></path> <path class="fil0" d="M4185.25 1401.75l0 40.76 148.17 0 0 -40.76c0,-11.36 -3.63,-20.38 -10.75,-27.04 -7.16,-6.65 -17.17,-10.02 -30.02,-10.02l-66.66 0c-12.84,0 -22.84,3.38 -30.01,10.02 -7.16,6.66 -10.73,15.68 -10.73,27.04zm240.73 -14.83l0 133.37 -240.73 0 0 37.02c0,11.33 3.57,20.36 10.73,27.06 7.16,6.63 17.17,9.98 30.01,9.98l185.19 0 0 77.79 -211.13 0c-15.79,0 -30.24,-2.56 -43.33,-7.78 -13.12,-5.18 -24.43,-12.35 -34.08,-21.49 -9.58,-9.11 -17.05,-19.75 -22.18,-31.83 -5.18,-12.11 -7.81,-25.06 -7.81,-38.92l0 -185.19c0,-13.83 2.62,-26.76 7.81,-38.85 5.14,-12.11 12.6,-22.73 22.18,-31.86 9.65,-9.16 20.96,-16.29 34.08,-21.49 13.09,-5.18 27.54,-7.78 43.33,-7.78l118.53 0c15.77,0 30.28,2.59 43.35,7.78 13.06,5.2 24.43,12.33 34.05,21.49 9.65,9.13 17.08,19.75 22.25,31.86 5.2,12.1 7.76,25.03 7.76,38.85z"></path> <polygon class="fil0" points="4755.64,1453.62 4748.24,1453.62 4681.53,1672.12 4585.26,1672.12 4492.63,1331.37 4492.63,1294.34 4592.63,1294.34 4640.8,1557.3 4648.2,1557.3 4707.48,1346.21 4796.33,1346.21 4855.63,1557.3 4863.04,1557.3 4911.2,1294.34 5011.19,1294.34 5011.19,1331.37 4918.58,1672.12 4822.3,1672.12 "></polygon> <path class="fil0" d="M5192.69 1294.34l0 377.78 -92.6 0 0 -377.78 92.6 0zm0 -151.88l0 103.73 -92.6 0 0 -103.73 92.6 0z"></path> <path class="fil0" d="M5380.85 1409.13l0 148.17c0,11.33 3.57,20.36 10.72,27.06 7.16,6.63 17.16,9.98 30.01,9.98l170.41 0 0 77.79 -196.35 0c-15.81,0 -30.23,-2.56 -43.33,-7.78 -13.09,-5.18 -24.43,-12.35 -34.09,-21.49 -9.62,-9.11 -17.03,-19.75 -22.18,-31.83 -5.22,-12.11 -7.79,-25.06 -7.79,-38.92l0 -177.74c0,-13.83 2.58,-26.82 7.79,-38.9 5.15,-12.11 12.57,-22.72 22.18,-31.86 9.66,-9.11 21.01,-16.29 34.09,-21.49 13.1,-5.18 27.53,-7.76 43.33,-7.76l196.35 0 0 55.56 -22.28 22.23 -148.13 0c-12.85,0 -22.84,3.33 -30.01,9.98 -7.15,6.69 -10.72,15.71 -10.72,27.02z"></path> <polygon class="fil0" points="5973.42,1594.34 5973.42,1672.12 5662.29,1672.12 5662.29,1594.34 5851.22,1379.51 5851.22,1372.13 5691.95,1372.13 5669.76,1349.9 5669.76,1294.34 5973.42,1294.34 5973.42,1372.13 5784.54,1586.95 5784.54,1594.34 "></polygon> <polygon class="fil0" points="1797.86,2320.19 1837.08,2320.19 1837.08,1953.83 1797.86,1953.83 "></polygon> <path class="fil0" d="M2153.7 2320.19l-36.65 0 0 -198.86c0,-11.85 -4.01,-21.78 -12.02,-29.84 -8.03,-8.01 -17.94,-12.02 -29.84,-12.02l-47.1 0c-9.76,0 -18.4,2.42 -25.89,7.32 -7.53,4.87 -13.87,10.28 -19.12,16.23 -5.92,6.98 -10.97,14.8 -15.15,23.54l0 193.63 -36.62 0 0 -266.89 23.54 0 5.23 36.62 2.62 0c4.18,-7.67 9.58,-14.64 16.21,-20.93 5.59,-5.56 12.35,-10.45 20.36,-14.66 8.04,-4.18 17.68,-6.28 28.81,-6.28l47.1 0c11.89,0 22.61,1.82 32.21,5.47 9.58,3.69 17.77,8.85 24.6,15.48 6.8,6.63 12.1,14.41 15.95,23.28 3.85,8.91 5.75,18.59 5.75,29.05l0 198.86z"></path> <path class="fil0" d="M2253.12 2126.56c0,10.46 2.69,18.57 8.14,24.35 5.36,5.75 14.01,9.85 25.92,12.27l75.89 15.73c18.46,3.82 32.7,11.16 42.63,21.96 9.93,10.81 14.93,26.18 14.93,46.07 0,10.46 -1.93,20.16 -5.77,29.02 -3.85,8.91 -9.16,16.69 -15.99,23.32 -6.77,6.61 -14.99,11.8 -24.57,15.43 -9.57,3.66 -20.3,5.48 -32.18,5.48l-128.22 0 0 -31.38 128.22 0c11.88,0 21.79,-4.02 29.87,-12.03 8,-8.01 12,-17.97 12,-29.84 0,-10.48 -2.69,-18.6 -8.12,-24.35 -5.39,-5.73 -14.05,-9.85 -25.91,-12.3l-75.87 -15.7c-18.52,-3.83 -32.73,-11.17 -42.66,-21.96 -9.93,-10.81 -14.91,-26.18 -14.91,-46.07 0,-21.26 7.15,-38.81 21.46,-52.59 14.3,-13.78 33.29,-20.68 57.03,-20.68l117.74 0 0 20.93 -10.46 10.46 -107.28 0c-11.85,0 -21.82,4.02 -29.8,12.02 -8.06,8.03 -12.08,17.99 -12.08,29.85z"></path> <path class="fil0" d="M2449.4 2084.69l0 -31.39 41.86 0 15.71 -78.53 20.94 0 0 78.53 75.89 0 0 31.39 -75.89 0 0 162.25c0,11.86 4.01,21.82 12.02,29.84 8.04,8.01 17.93,12.03 29.85,12.03l49.73 0 0 31.38 -49.73 0c-11.92,0 -22.59,-1.82 -32.22,-5.48 -9.55,-3.63 -17.8,-8.81 -24.59,-15.43 -6.77,-6.63 -12.1,-14.41 -15.92,-23.32 -3.9,-8.86 -5.8,-18.56 -5.8,-29.02l0 -162.25 -41.86 0z"></path> <path class="fil0" d="M2878.56 2069l-94.21 251.19c-11.86,31.41 -25.04,54.11 -39.55,68.06 -14.44,13.95 -33.54,20.93 -57.25,20.93l-13.12 0 0 -31.41 13.12 0c25.42,0 44.6,-19.2 57.47,-57.58l-99.33 -251.19 0 -15.7 36.58 0 81.17 225.02 2.58 0 75.9 -225.02 36.64 0 0 15.7z"></path> <path class="fil0" d="M2899.5 2084.69l0 -31.39 41.84 0 15.7 -78.53 20.93 0 0 78.53 75.9 0 0 31.39 -75.9 0 0 162.25c0,11.86 4.01,21.82 12.05,29.84 7.98,8.01 18.01,12.03 29.82,12.03l49.71 0 0 31.38 -49.71 0c-11.82,0 -22.58,-1.82 -32.16,-5.48 -9.63,-3.63 -17.82,-8.81 -24.57,-15.43 -6.85,-6.63 -12.16,-14.41 -16.01,-23.32 -3.82,-8.86 -5.75,-18.56 -5.75,-29.02l0 -162.25 -41.84 0z"></path> <path class="fil0" d="M3127.13 2053.3l36.64 0 0 198.86c0,11.86 4.04,21.81 12.02,29.82 8.06,8.04 17.99,12.05 29.85,12.05l47.13 0c9.71,0 18.38,-2.42 25.88,-7.29 7.51,-4.93 13.9,-10.31 19.09,-16.26 5.94,-6.98 11,-14.83 15.22,-23.54l0 -193.64 36.59 0 0 266.89 -23.52 0 -5.25 -36.61 -2.64 0c-4.19,7.68 -9.55,14.64 -16.18,20.91 -5.59,5.59 -12.41,10.48 -20.44,14.66 -8.03,4.21 -17.58,6.3 -28.75,6.3l-47.13 0c-11.86,0 -22.61,-1.84 -32.18,-5.5 -9.63,-3.66 -17.82,-8.8 -24.62,-15.46 -6.8,-6.61 -12.11,-14.38 -15.96,-23.27 -3.85,-8.91 -5.75,-18.6 -5.75,-29.07l0 -198.86z"></path> <path class="fil0" d="M3401.91 2084.69l0 -31.39 41.9 0 15.66 -78.53 20.91 0 0 78.53 75.92 0 0 31.39 -75.92 0 0 162.25c0,11.86 4.01,21.82 12.07,29.84 8,8.01 17.97,12.03 29.84,12.03l49.7 0 0 31.38 -49.7 0c-11.86,0 -22.61,-1.82 -32.19,-5.48 -9.6,-3.63 -17.82,-8.81 -24.6,-15.43 -6.83,-6.63 -12.14,-14.41 -15.98,-23.32 -3.87,-8.86 -5.7,-18.56 -5.7,-29.02l0 -162.25 -41.9 0z"></path> <polygon class="fil0" points="3930.49,2270.48 3823.2,2014.04 3820.57,2014.04 3783.96,2320.19 3744.69,2320.19 3744.69,2304.49 3791.79,1953.83 3838.91,1953.83 3948.82,2218.14 3951.42,2218.14 4061.3,1953.83 4108.42,1953.83 4155.57,2304.49 4155.57,2320.19 4116.28,2320.19 4079.64,2014.04 4077.01,2014.04 3969.72,2270.48 "></polygon> <path class="fil0" d="M4260.23 2121.33l0 49.73 141.28 0 0 -49.73c0,-11.85 -4.05,-21.78 -12.02,-29.84 -8.04,-8.01 -18.01,-12.02 -29.88,-12.02l-57.55 0c-11.85,0 -21.81,4.01 -29.84,12.02 -8.01,8.06 -11.99,17.99 -11.99,29.84zm167.44 198.86l-125.61 0c-25.11,0 -44.48,-6.94 -58.12,-20.91 -13.59,-13.97 -20.38,-31.41 -20.38,-52.33l0 -125.61c0,-10.46 1.89,-20.14 5.75,-29.05 3.82,-8.88 9.19,-16.65 15.98,-23.28 6.79,-6.63 14.99,-11.78 24.6,-15.48 9.57,-3.65 20.31,-5.47 32.16,-5.47l57.55 0c11.88,0 22.61,1.82 32.22,5.47 9.6,3.69 17.8,8.85 24.6,15.48 6.77,6.63 12.1,14.41 15.96,23.28 3.82,8.91 5.75,18.59 5.75,29.05l0 81.12 -177.92 0 0 44.49c0,11.86 3.97,21.82 11.99,29.84 8.03,8.01 17.99,12.03 29.84,12.03l125.61 0 0 31.38z"></path> <path class="fil0" d="M4485.28 2084.69l0 -31.39 41.86 0 15.68 -78.53 20.93 0 0 78.53 75.9 0 0 31.39 -75.9 0 0 162.25c0,11.86 4.01,21.82 12.05,29.84 8,8.01 17.96,12.03 29.84,12.03l49.7 0 0 31.38 -49.7 0c-11.88,0 -22.61,-1.82 -32.19,-5.48 -9.62,-3.63 -17.83,-8.81 -24.6,-15.43 -6.8,-6.63 -12.13,-14.41 -15.95,-23.32 -3.85,-8.86 -5.75,-18.56 -5.75,-29.02l0 -162.25 -41.86 0z"></path> <path class="fil0" d="M4767.85 2294.03l41.9 0c9.73,0 18.38,-2.42 25.86,-7.29 7.49,-4.93 13.89,-10.31 19.14,-16.26 5.92,-6.98 10.95,-14.83 15.13,-23.54l0 -52.35 -102.03 0c-11.83,0 -21.79,3.99 -29.85,12.03 -8,8.04 -12.02,17.97 -12.02,29.84l0 15.7c0,11.86 4.02,21.81 12.02,29.82 8.06,8.04 18.02,12.05 29.85,12.05zm138.67 26.16l-23.54 0 -5.23 -36.61 -2.61 0c-4.19,7.68 -9.6,14.64 -16.2,20.91 -5.64,5.59 -12.41,10.48 -20.42,14.66 -8.04,4.21 -17.66,6.3 -28.77,6.3l-41.9 0c-25.12,0 -44.46,-6.99 -58.07,-20.96 -13.61,-13.95 -20.44,-31.38 -20.44,-52.33l0 -15.7c0,-10.46 1.93,-20.13 5.73,-29.05 3.82,-8.88 9.21,-16.65 15.99,-23.27 6.8,-6.63 14.99,-11.8 24.6,-15.44 9.58,-3.66 20.35,-5.51 32.18,-5.51l102.03 0 0 -36.62c0,-11.86 -4.01,-21.82 -12.02,-29.85 -8.03,-8 -18.01,-12.02 -29.84,-12.02l-115.13 0 0 -31.39 115.13 0c11.83,0 22.59,1.82 32.18,5.5 9.62,3.66 17.77,8.81 24.6,15.43 6.83,6.63 12.16,14.41 15.99,23.3 3.8,8.88 5.72,18.57 5.72,29.03l0 193.63z"></path> <path class="fil0" d="M4990.27 2246.94l0 -293.11 36.64 0 0 293.11c0,11.86 4.02,21.82 12.03,29.84 8.03,8.01 17.96,12.03 29.82,12.03l7.86 0 0 31.38 -7.86 0c-11.86,0 -22.59,-1.82 -32.16,-5.48 -9.62,-3.63 -17.82,-8.81 -24.64,-15.43 -6.79,-6.63 -12.1,-14.41 -15.95,-23.32 -3.85,-8.86 -5.75,-18.56 -5.75,-29.02z"></path> <path class="fil0" d="M5165.6 2053.3l0 266.89 -36.62 0 0 -266.89 36.62 0zm0 -99.47l0 62.81 -36.62 0 0 -62.81 36.62 0z"></path> <polygon class="fil0" points="5600,2320.19 5422.04,2019.28 5419.4,2019.28 5424.67,2087.31 5424.67,2320.19 5385.42,2320.19 5385.42,1953.83 5427.23,1953.83 5605.21,2254.78 5607.83,2254.78 5602.61,2186.74 5602.61,1953.83 5641.86,1953.83 5641.86,2320.19 "></polygon> <path class="fil0" d="M5772.67 2053.3l0 266.89 -36.61 0 0 -266.89 36.61 0zm0 -99.47l0 62.81 -36.61 0 0 -62.81 36.61 0z"></path> <path class="fil0" d="M5887.82 2121.33l0 49.73 141.31 0 0 -49.73c0,-11.85 -4.02,-21.78 -12.03,-29.84 -8.01,-8.01 -17.99,-12.02 -29.84,-12.02l-57.57 0c-11.88,0 -21.84,4.01 -29.85,12.02 -8.04,8.06 -12.02,17.99 -12.02,29.84zm167.45 198.86l-125.58 0c-25.14,0 -44.51,-6.94 -58.1,-20.91 -13.61,-13.97 -20.42,-31.41 -20.42,-52.33l0 -125.61c0,-10.46 1.92,-20.14 5.8,-29.05 3.79,-8.88 9.16,-16.65 15.93,-23.28 6.79,-6.63 15,-11.78 24.6,-15.48 9.58,-3.65 20.31,-5.47 32.19,-5.47l57.57 0c11.85,0 22.56,1.82 32.18,5.47 9.63,3.69 17.79,8.85 24.59,15.48 6.8,6.63 12.11,14.41 15.99,23.28 3.83,8.91 5.77,18.59 5.77,29.05l0 81.12 -177.96 0 0 44.49c0,11.86 3.97,21.82 12.02,29.84 8.01,8.01 17.97,12.03 29.85,12.03l125.58 0 0 31.38z"></path> <path class="fil0" d="M6243.7 1951.22l0 57.58 -36.62 0 0 -57.58 36.62 0zm78.53 337.59l0 31.38 -209.34 0 0 -31.38 162.24 -201.5 0 -2.62 -146.53 0 -10.5 -10.46 0 -20.93 204.12 0 0 31.39 -162.25 201.47 0 2.66 162.25 0z"></path> <path class="fil0" d="M6405.94 2121.33l0 49.73 141.36 0 0 -49.73c0,-11.85 -4.05,-21.78 -12.1,-29.84 -8.03,-8.01 -17.97,-12.02 -29.84,-12.02l-57.57 0c-11.85,0 -21.84,4.01 -29.84,12.02 -8,8.06 -12.02,17.99 -12.02,29.84zm167.47 198.86l-125.61 0c-25.09,0 -44.46,-6.94 -58.09,-20.91 -13.61,-13.97 -20.42,-31.41 -20.42,-52.33l0 -125.61c0,-10.46 1.93,-20.14 5.78,-29.05 3.85,-8.88 9.19,-16.65 15.99,-23.28 6.76,-6.63 14.93,-11.78 24.59,-15.48 9.58,-3.65 20.3,-5.47 32.15,-5.47l57.57 0c11.86,0 22.59,1.82 32.21,5.47 9.58,3.69 17.79,8.85 24.62,15.48 6.79,6.63 12.07,14.41 15.92,23.28 3.88,8.91 5.77,18.59 5.77,29.05l0 81.12 -177.93 0 0 44.49c0,11.86 4.02,21.82 12.02,29.84 8,8.01 17.99,12.03 29.84,12.03l125.61 0 0 31.38z"></path> <path class="fil0" d="M6662.38 2246.94l0 -293.11 36.62 0 0 293.11c0,11.86 4.01,21.82 12.03,29.84 8.03,8.01 17.97,12.03 29.82,12.03l7.87 0 0 31.38 -7.87 0c-11.85,0 -22.56,-1.82 -32.21,-5.48 -9.6,-3.63 -17.71,-8.81 -24.57,-15.43 -6.79,-6.63 -12.14,-14.41 -15.99,-23.32 -3.8,-8.86 -5.7,-18.56 -5.7,-29.02z"></path> <path class="fil0" d="M6856.01 2294.03l41.9 0c9.73,0 18.38,-2.42 25.88,-7.29 7.49,-4.93 13.87,-10.31 19.14,-16.26 5.91,-6.98 10.97,-14.83 15.11,-23.54l0 -52.35 -102.03 0c-11.86,0 -21.79,3.99 -29.84,12.03 -8,8.04 -12.02,17.97 -12.02,29.84l0 15.7c0,11.86 4.02,21.81 12.02,29.82 8.04,8.04 17.97,12.05 29.84,12.05zm138.65 26.16l-23.49 0 -5.25 -36.61 -2.61 0c-4.18,7.68 -9.57,14.64 -16.21,20.91 -5.62,5.59 -12.41,10.48 -20.44,14.66 -8.01,4.21 -17.6,6.3 -28.75,6.3l-41.9 0c-25.11,0 -44.45,-6.99 -58.07,-20.96 -13.61,-13.95 -20.41,-31.38 -20.41,-52.33l0 -15.7c0,-10.46 1.92,-20.13 5.77,-29.05 3.85,-8.88 9.13,-16.65 15.95,-23.27 6.79,-6.63 14.97,-11.8 24.59,-15.44 9.62,-3.66 20.31,-5.51 32.18,-5.51l102.03 0 0 -36.62c0,-11.86 -3.94,-21.82 -12.02,-29.85 -8,-8 -17.93,-12.02 -29.79,-12.02l-115.2 0 0 -31.39 115.2 0c11.86,0 22.56,1.82 32.15,5.5 9.62,3.66 17.79,8.81 24.6,15.43 6.8,6.63 12.14,14.41 15.93,23.3 3.87,8.88 5.75,18.57 5.75,29.03l0 193.63z"></path> <polygon class="fil0" points="7256.42,2288.81 7256.42,2320.19 7047.05,2320.19 7047.05,2288.81 7209.31,2087.31 7209.31,2084.69 7062.76,2084.69 7052.29,2074.23 7052.29,2053.3 7256.42,2053.3 7256.42,2084.69 7094.15,2286.16 7094.15,2288.81 "></polygon> <path class="fil0" d="M7531.1 2320.19l-36.58 0 0 -198.86c0,-11.85 -4.04,-21.78 -12.07,-29.84 -8.01,-8.01 -17.94,-12.02 -29.8,-12.02l-47.13 0c-9.74,0 -18.37,2.42 -25.88,7.32 -7.51,4.87 -13.89,10.28 -19.14,16.23 -5.91,6.98 -11,14.8 -15.16,23.54l0 193.63 -36.61 0 0 -266.89 23.54 0 5.22 36.62 2.62 0c4.18,-7.67 9.63,-14.64 16.21,-20.93 5.61,-5.56 12.41,-10.45 20.42,-14.66 8.04,-4.18 17.6,-6.28 28.77,-6.28l47.13 0c11.86,0 22.56,1.82 32.18,5.47 9.58,3.69 17.82,8.85 24.57,15.48 6.82,6.63 12.14,14.41 15.99,23.28 3.82,8.91 5.7,18.59 5.7,29.05l0 198.86z"></path> <path class="fil0" d="M7816.37 2069l-94.19 251.19c-11.88,31.41 -25.03,54.11 -39.53,68.06 -14.47,13.95 -33.61,20.93 -57.32,20.93l-13.07 0 0 -31.41 13.07 0c25.47,0 44.67,-19.2 57.55,-57.58l-99.41 -251.19 0 -15.7 36.61 0 81.13 225.02 2.64 0 75.89 -225.02 36.62 0 0 15.7z"></path> <path class="fil0" d="M8051.87 2084.69l-109.9 0c-11.83,0 -21.82,4.02 -29.8,12.02 -8.06,8.03 -12.05,17.99 -12.05,29.85l0 120.38c0,11.86 3.99,21.82 12.05,29.84 7.98,8.01 17.97,12.03 29.8,12.03l120.37 0 0 31.38 -120.37 0c-25.12,0 -44.49,-6.94 -58.07,-20.91 -13.64,-13.97 -20.42,-31.41 -20.42,-52.33l0 -120.38c0,-10.46 1.93,-20.16 5.72,-29.03 3.85,-8.89 9.18,-16.67 15.99,-23.3 6.83,-6.61 15,-11.77 24.6,-15.43 9.58,-3.68 20.35,-5.5 32.18,-5.5l120.37 0 0 20.93 -10.46 10.46z"></path> <path class="fil0" d="M8119.93 1953.83l36.58 0 0 99.47 107.34 0c11.86,0 22.56,1.82 32.18,5.5 9.58,3.66 17.77,8.81 24.6,15.43 6.79,6.63 12.11,14.41 15.96,23.3 3.8,8.88 5.73,18.57 5.73,29.03l0 193.63 -36.64 0 0 -193.63c0,-11.86 -4.01,-21.82 -12.05,-29.85 -7.98,-8 -17.93,-12.02 -29.79,-12.02l-107.34 0 0 235.5 -36.58 0 0 -366.36z"></path> <path class="fil0" d="M1326.77 1672.77l-1258.55 0c-27.59,0 -52.48,-16.62 -63,-42.11 -10.57,-25.5 -4.76,-54.82 14.77,-74.33l997.63 -997.63 -185.18 -185.21 -715.99 715.97c-19.51,19.51 -48.83,25.34 -74.33,14.8 -25.3,-10.5 -41.87,-35.05 -42.12,-62.39l0 -121.07 0.02 -361.3c0,-37.66 30.53,-68.2 68.2,-68.2l0 0c37.68,0 68.23,30.54 68.23,68.2l0 317.04 647.74 -647.75c26.66,-26.63 69.84,-26.63 96.48,0l281.66 281.66c26.62,26.63 26.62,69.82 0,96.48l-929.44 929.38 1025.71 0 0 -281.64 -422.42 0c-37.66,0 -68.2,-30.54 -68.2,-68.2 0,-37.69 30.54,-68.22 68.2,-68.22l490.59 0c37.72,0 68.27,30.53 68.27,68.22l0 418.1c0,37.64 -30.54,68.2 -68.27,68.2z"></path> <path class="fil1" d="M68.22 409.8c-37.68,0 -68.2,-30.53 -68.2,-68.2l0 -273.4c0,-37.68 30.53,-68.2 68.2,-68.2 37.68,0 68.23,30.53 68.23,68.2l0 273.4c0,37.68 -30.56,68.2 -68.23,68.2z"></path> </g> </g> </svg>
